<svg id="Layer_1" data-name="Layer 1" xmlns="http://www.w3.org/2000/svg" xmlns:xlink="http://www.w3.org/1999/xlink" viewBox="0 0 247.62 194.1"><defs><style>.cls-1,.cls-11,.cls-12{fill:none;}.cls-2{clip-path:url(#clip-path);}.cls-3{fill:#ed1c24;}.cls-4{fill:#8dc63f;}.cls-5{fill:#62bb46;}.cls-6{fill:#39b54a;}.cls-7{fill:#00a651;}.cls-8{fill:#f7941d;}.cls-9{fill:#58595b;}.cls-10{fill:#231f20;}.cls-11,.cls-12{stroke:#231f20;stroke-miterlimit:10;}.cls-11{stroke-width:0.2px;}.cls-12{stroke-width:0.4px;}</style><clipPath id="clip-path" transform="translate(-13.11 -13.44)"><rect class="cls-1" width="278.15" height="226.72"/></clipPath></defs><title>investorslife</title><g class="cls-2"><path class="cls-3" d="M210.81,184.27a2.89,2.89,0,1,1-2.89-2.89,2.89,2.89,0,0,1,2.89,2.89" transform="translate(-13.11 -13.44)"/><rect class="cls-4" x="101.12" y="61.47" width="13.39" height="40.52"/><rect class="cls-5" x="120.63" y="48.66" width="13.39" height="53.33"/><rect class="cls-6" x="140.14" y="36.53" width="13.39" height="65.46"/><rect class="cls-7" x="159.64" y="23.99" width="13.39" height="78"/><path class="cls-8" d="M166.63,19.58l-20,7.41,6,4.48C140.28,54.69,109,67.31,109,67.31c31.51-7.52,47.45-26.18,50.8-30.51l5.43,4Z" transform="translate(-13.11 -13.44)"/><path class="cls-9" d="M83,126.82v31.65l13.25-4.33a9.78,9.78,0,0,1,8.52.95c4.6,2.7,17.58,10.68,32.73,10.55a30.71,30.71,0,0,1,5.68.95c2,.67,3.92,1.62,8.93,0s23.13-6.68,42.06-19.43l12.44-8.29s3.92-7-1.89-8.65a7.2,7.2,0,0,0-6.22.81l-4.46,2.16s.68-6.22-7.3-4.46l-4.19,2.43s1.49-6.63-6.63-4.33L162.29,134s8.66,1.62,8,10.14-9.33,8.66-9.33,8.66H142.41s-20.56.14-24.07-15.82c0,0,16.5,10.42,24.07,9.94s20-.61,20-.61,4.6-5.55-4.33-8.12L146.87,136s-6.9-.81-13-7.84-23.53-13.79-37.87-6.9Z" transform="translate(-13.11 -13.44)"/><path class="cls-9" d="M65.9,120.33v39.9l13.79-4.06V117.76ZM72.79,155a4.12,4.12,0,1,1,4.13-4.12A4.12,4.12,0,0,1,72.79,155" transform="translate(-13.11 -13.44)"/><path class="cls-10" d="M179.83,33.66a10.11,10.11,0,1,1,10.11-10.11,10.12,10.12,0,0,1-10.11,10.11m0-19.27A9.16,9.16,0,1,0,189,23.55a9.17,9.17,0,0,0-9.16-9.16" transform="translate(-13.11 -13.44)"/><path class="cls-10" d="M176.17,18.87a.67.67,0,0,1-.74-.68.67.67,0,0,1,.18-.46.72.72,0,0,1,.56-.2h7a.67.67,0,0,1,.74.68.67.67,0,0,1-.18.46.72.72,0,0,1-.56.2h-1l-1.12,0-.55,0v.08a2.39,2.39,0,0,1,.78.57,2.53,2.53,0,0,1,.57,1h1.35a.67.67,0,0,1,.74.68.67.67,0,0,1-.18.46.72.72,0,0,1-.56.2h-1.25a3.45,3.45,0,0,1-1.4,2.51,4.11,4.11,0,0,1-1.2.61,6,6,0,0,1-1.28.27l4.29,4.12a.94.94,0,0,1,.3.68.86.86,0,0,1-.23.61.8.8,0,0,1-.63.25,1.27,1.27,0,0,1-.41-.07,1.08,1.08,0,0,1-.41-.28l-5.05-4.93a1.29,1.29,0,0,1-.3-.39.93.93,0,0,1-.1-.41.83.83,0,0,1,.23-.6.77.77,0,0,1,.59-.24h.25a6.53,6.53,0,0,0,1.17-.1,3.38,3.38,0,0,0,1-.36,2.63,2.63,0,0,0,.79-.65,2.08,2.08,0,0,0,.42-1h-3.85a.7.7,0,0,1-.56-.21.71.71,0,0,1-.18-.47.68.68,0,0,1,.18-.47.72.72,0,0,1,.56-.2h3.76q-.5-1.6-2.9-1.6Z" transform="translate(-13.11 -13.44)"/><circle class="cls-11" cx="166.72" cy="10.11" r="8.53"/><path class="cls-3" d="M15.86,174.88h4.81v3H15.86Zm.08,3.77h4.64v11.17H15.94Z" transform="translate(-13.11 -13.44)"/><path class="cls-3" d="M22,178.65h4.64v1.56a4.32,4.32,0,0,1,3.42-1.82c2.35,0,3.83,1.56,3.83,4.07v7.37H29.26v-5.87A1.34,1.34,0,0,0,28,182.43a1.38,1.38,0,0,0-1.33,1.51v5.87H22Z" transform="translate(-13.11 -13.44)"/><polygon class="cls-3" points="21 165.21 25.87 165.21 27.67 170.82 29.49 165.21 34.3 165.21 29.78 176.46 25.52 176.46 21 165.21"/><path class="cls-3" d="M47,184.29v0a5.65,5.65,0,0,1,5.75-5.87c4,0,5.81,2.76,5.81,6.16,0,.25,0,.53,0,.78H51.4a2.09,2.09,0,0,0,2.11,1.49,3.11,3.11,0,0,0,2.27-1.15l2.5,2a6,6,0,0,1-5.09,2.43c-3.66,0-6.14-2.31-6.14-5.79m7.33-1c-.1-1.06-.74-1.68-1.56-1.68s-1.33.65-1.47,1.68Z" transform="translate(-13.11 -13.44)"/><path class="cls-3" d="M58.83,188.47l1.58-2.64a8.09,8.09,0,0,0,4.13,1.25c.45,0,.67-.1.67-.37v0c0-.22-.2-.37-1.33-.65-2.82-.7-4.56-1.45-4.56-3.77v0c0-2.46,2-3.83,4.87-3.83a9.93,9.93,0,0,1,5,1.29l-1.47,2.76a8.25,8.25,0,0,0-3.56-1c-.45,0-.65.12-.65.35v0c0,.22.25.37,1.37.65,2.82.69,4.52,1.47,4.52,3.76v0c0,2.44-1.82,3.85-4.85,3.85a10.23,10.23,0,0,1-5.73-1.62" transform="translate(-13.11 -13.44)"/><path class="cls-3" d="M71,186.07v-3.85H69.71v-3.58H71v-2.8h4.64v2.8h2.58v3.58H75.67v2.83c0,.84.39,1.15,1.13,1.15a3.47,3.47,0,0,0,1.41-.35v3.58a6.7,6.7,0,0,1-3,.63c-2.74,0-4.21-1.27-4.21-4" transform="translate(-13.11 -13.44)"/><path class="cls-3" d="M78.63,184.27v0a6.3,6.3,0,0,1,12.56,0v0a6.3,6.3,0,0,1-12.56,0m8.1,0v0a1.91,1.91,0,0,0-1.84-2,1.85,1.85,0,0,0-1.8,1.94v0a1.91,1.91,0,0,0,1.84,2,1.85,1.85,0,0,0,1.8-1.94" transform="translate(-13.11 -13.44)"/><path class="cls-3" d="M92.24,178.65h4.64v2.25a3.39,3.39,0,0,1,3.5-2.41v4.93h-.49c-2,0-3,1.08-3,3.56v2.84H92.24Z" transform="translate(-13.11 -13.44)"/><path class="cls-3" d="M100.38,188.47l1.58-2.64a8.09,8.09,0,0,0,4.13,1.25c.45,0,.67-.1.67-.37v0c0-.22-.2-.37-1.33-.65-2.82-.7-4.56-1.45-4.56-3.77v0c0-2.46,2-3.83,4.87-3.83a9.93,9.93,0,0,1,5,1.29l-1.47,2.76a8.25,8.25,0,0,0-3.56-1c-.45,0-.65.12-.65.35v0c0,.22.25.37,1.37.65,2.82.69,4.52,1.47,4.52,3.76v0c0,2.44-1.82,3.85-4.85,3.85a10.23,10.23,0,0,1-5.73-1.62" transform="translate(-13.11 -13.44)"/><rect class="cls-7" x="98.85" y="161.44" width="4.64" height="14.94"/><path class="cls-7" d="M118,174.88h4.81v3H118Zm.08,3.77h4.64v11.17h-4.64Z" transform="translate(-13.11 -13.44)"/><path class="cls-7" d="M125,182.23H123.7v-3.58H125a3.93,3.93,0,0,1,1-2.85,4.25,4.25,0,0,1,3.27-1.06,10.12,10.12,0,0,1,2.85.31V178a6.39,6.39,0,0,0-1.49-.16c-.72,0-1.08.29-1.08.9v.08h2.58v3.46h-2.48v7.59H125Z" transform="translate(-13.11 -13.44)"/><path class="cls-7" d="M132.32,184.29v0a5.65,5.65,0,0,1,5.75-5.87c4,0,5.81,2.76,5.81,6.16,0,.25,0,.53,0,.78h-7.18a2.09,2.09,0,0,0,2.11,1.49,3.11,3.11,0,0,0,2.27-1.15l2.5,2a6,6,0,0,1-5.1,2.43c-3.66,0-6.14-2.31-6.14-5.79m7.33-1c-.1-1.06-.74-1.68-1.56-1.68s-1.33.65-1.47,1.68Z" transform="translate(-13.11 -13.44)"/><path class="cls-7" d="M144.65,191.74l1.43-2.8a8.34,8.34,0,0,0,4,1.06c1.74,0,2.66-.9,2.66-2.46v-.33a4.25,4.25,0,0,1-3.23,1.53,4.82,4.82,0,0,1-5-5.13v0c0-3.13,2.13-5.2,4.71-5.2a4.38,4.38,0,0,1,3.42,1.45v-1.19h4.65V187c0,2.07-.43,3.48-1.45,4.5s-2.54,1.64-5,1.64a13.27,13.27,0,0,1-6.2-1.39m8.14-8.15v0a1.87,1.87,0,0,0-3.72,0v0a1.87,1.87,0,0,0,3.72,0" transform="translate(-13.11 -13.44)"/><path class="cls-7" d="M158.65,186v-7.37h4.64v5.87a1.34,1.34,0,0,0,1.27,1.52,1.38,1.38,0,0,0,1.33-1.52v-5.87h4.65v11.17h-4.65v-1.49a4.28,4.28,0,0,1-3.42,1.76c-2.35,0-3.83-1.55-3.83-4.07" transform="translate(-13.11 -13.44)"/><path class="cls-7" d="M171.89,174.88h4.81v3h-4.81Zm.08,3.77h4.65v11.17H172Z" transform="translate(-13.11 -13.44)"/><path class="cls-7" d="M177.72,184.32v0c0-3.54,2.13-5.89,4.77-5.89a4.17,4.17,0,0,1,3.35,1.53v-5h4.65v14.94h-4.65v-1.37a4.14,4.14,0,0,1-3.31,1.64c-2.7,0-4.81-2.35-4.81-5.77m8.23-.06v0a1.87,1.87,0,1,0-3.72,0v0a1.87,1.87,0,1,0,3.72,0" transform="translate(-13.11 -13.44)"/><path class="cls-7" d="M191.53,184.29v0a5.65,5.65,0,0,1,5.75-5.87c4,0,5.81,2.76,5.81,6.16,0,.25,0,.53,0,.78h-7.18a2.09,2.09,0,0,0,2.11,1.49,3.11,3.11,0,0,0,2.27-1.15l2.5,2a6,6,0,0,1-5.1,2.43c-3.66,0-6.14-2.31-6.14-5.79m7.33-1c-.1-1.06-.74-1.68-1.56-1.68s-1.33.65-1.47,1.68Z" transform="translate(-13.11 -13.44)"/><path class="cls-3" d="M214.16,184.29v0a5.87,5.87,0,0,1,6.1-5.85,5.34,5.34,0,0,1,5.05,3.09L222,183.37a1.79,1.79,0,0,0-1.64-1.13,1.82,1.82,0,0,0-1.72,2v0a1.82,1.82,0,0,0,1.66,2,1.93,1.93,0,0,0,1.74-1.12l3.38,1.92a5.64,5.64,0,0,1-5.36,3,5.79,5.79,0,0,1-5.87-5.81" transform="translate(-13.11 -13.44)"/><path class="cls-3" d="M225.45,184.27v0a6.3,6.3,0,0,1,12.56,0v0a6.3,6.3,0,0,1-12.56,0m8.1,0v0a1.91,1.91,0,0,0-1.84-2,1.85,1.85,0,0,0-1.8,1.94v0a1.91,1.91,0,0,0,1.84,2,1.85,1.85,0,0,0,1.8-1.94" transform="translate(-13.11 -13.44)"/><path class="cls-3" d="M239.05,178.65h4.64v1.49a4.25,4.25,0,0,1,3.38-1.76,3.49,3.49,0,0,1,3.29,1.84,4.79,4.79,0,0,1,3.79-1.84c2.39,0,3.87,1.56,3.87,4.07v7.37h-4.64v-5.91c0-.94-.55-1.47-1.23-1.47a1.34,1.34,0,0,0-1.29,1.47v5.91h-4.65v-5.91c0-.94-.55-1.47-1.23-1.47a1.34,1.34,0,0,0-1.29,1.47v5.91h-4.64Z" transform="translate(-13.11 -13.44)"/><line class="cls-12" y1="182.82" x2="247.62" y2="182.82"/><polygon class="cls-10" points="70.05 189.31 70.94 189.31 70.94 193.13 72.23 193.13 72.23 193.98 70.05 193.98 70.05 189.31"/><rect class="cls-10" x="75.71" y="189.31" width="0.88" height="4.67"/><polygon class="cls-10" points="80.46 189.31 82.78 189.31 82.78 190.18 81.34 190.18 81.34 191.03 82.78 191.03 82.78 191.88 81.34 191.88 81.34 193.98 80.46 193.98 80.46 189.31"/><polygon class="cls-10" points="86.43 189.31 88.98 189.31 88.98 190.18 87.31 190.18 87.31 191.03 88.98 191.03 88.98 191.88 87.31 191.88 87.31 193.11 88.98 193.11 88.98 193.98 86.43 193.98 86.43 189.31"/><path class="cls-10" d="M110.09,203.51l-.63.62a1.85,1.85,0,0,0-1.38-.63,1.59,1.59,0,0,0-1.15.46,1.5,1.5,0,0,0-.47,1.11,1.54,1.54,0,0,0,.48,1.15,1.64,1.64,0,0,0,1.19.47,1.46,1.46,0,0,0,.78-.19,1.36,1.36,0,0,0,.51-.61h-1.35v-.83h2.35v.2a2.27,2.27,0,0,1-.32,1.16,2.21,2.21,0,0,1-.82.84,2.33,2.33,0,0,1-1.18.29,2.64,2.64,0,0,1-1.3-.31,2.32,2.32,0,0,1-.9-.9,2.52,2.52,0,0,1-.33-1.26,2.34,2.34,0,0,1,.61-1.61,2.42,2.42,0,0,1,1.89-.82,2.87,2.87,0,0,1,1.14.23,2.62,2.62,0,0,1,.88.65" transform="translate(-13.11 -13.44)"/><path class="cls-10" d="M114.07,202.75H115v3a1.58,1.58,0,0,0,.07.55.54.54,0,0,0,.23.26.7.7,0,0,0,.38.1.73.73,0,0,0,.4-.11.56.56,0,0,0,.24-.27,2,2,0,0,0,.07-.64v-2.91h.89v2.78a4,4,0,0,1-.08,1,1.39,1.39,0,0,1-.3.53,1.41,1.41,0,0,1-.52.38,1.74,1.74,0,0,1-.68.12,1.64,1.64,0,0,1-.88-.23,1.36,1.36,0,0,1-.54-.58,3.08,3.08,0,0,1-.16-1.19Z" transform="translate(-13.11 -13.44)"/><rect class="cls-10" x="107.95" y="189.31" width="0.88" height="4.67"/><path class="cls-10" d="M125.8,202.75h1.05a3.46,3.46,0,0,1,1.51.25,2,2,0,0,1,.81.82,2.88,2.88,0,0,1,.14,2.32,2,2,0,0,1-.49.75,1.74,1.74,0,0,1-.68.41,4.86,4.86,0,0,1-1.28.11H125.8Zm.88.86v2.95h.41a2.09,2.09,0,0,0,.88-.14,1.06,1.06,0,0,0,.45-.47,1.72,1.72,0,0,0,.18-.81,1.55,1.55,0,0,0-.42-1.15,1.67,1.67,0,0,0-1.2-.37Z" transform="translate(-13.11 -13.44)"/><polygon class="cls-10" points="120.1 189.31 122.65 189.31 122.65 190.18 120.98 190.18 120.98 191.03 122.65 191.03 122.65 191.88 120.98 191.88 120.98 193.11 122.65 193.11 122.65 193.98 120.1 193.98 120.1 189.31"/><polygon class="cls-10" points="131.02 189.31 131.87 189.31 133.87 192.38 133.87 189.31 134.76 189.31 134.76 193.98 133.9 193.98 131.91 190.92 131.91 193.98 131.02 193.98 131.02 189.31"/><polygon class="cls-10" points="138.69 189.31 141.24 189.31 141.24 190.18 139.57 190.18 139.57 191.03 141.24 191.03 141.24 191.88 139.57 191.88 139.57 193.11 141.24 193.11 141.24 193.98 138.69 193.98 138.69 189.31"/><polygon class="cls-10" points="144.47 189.31 147.05 189.31 147.05 190.19 146.19 190.19 146.19 193.98 145.29 193.98 145.29 190.19 144.47 190.19 144.47 189.31"/><polygon class="cls-10" points="150.16 189.31 151.04 189.31 151.71 192.29 152.54 189.31 153.28 189.31 154.13 192.29 154.8 189.31 155.67 189.31 154.62 193.98 153.77 193.98 152.91 190.96 152.06 193.98 151.22 193.98 150.16 189.31"/><path class="cls-10" d="M174.54,202.63a2.32,2.32,0,0,1,1.7.72,2.39,2.39,0,0,1,.71,1.75,2.36,2.36,0,0,1-.7,1.73,2.44,2.44,0,0,1-3.45,0,2.45,2.45,0,0,1,1.74-4.18m0,.87a1.46,1.46,0,0,0-1.09.45,1.57,1.57,0,0,0-.44,1.15,1.49,1.49,0,0,0,.55,1.23,1.53,1.53,0,0,0,1,.35,1.45,1.45,0,0,0,1.08-.46,1.65,1.65,0,0,0,0-2.26,1.46,1.46,0,0,0-1.09-.46" transform="translate(-13.11 -13.44)"/><path class="cls-10" d="M180.71,202.75h.94a3.11,3.11,0,0,1,1.1.14,1.13,1.13,0,0,1,.53.46,1.41,1.41,0,0,1,.2.76,1.29,1.29,0,0,1-.22.77,1.34,1.34,0,0,1-.67.47l1.11,2.08h-1l-1.05-2h-.08v2h-.89Zm.89,1.82h.28a1.09,1.09,0,0,0,.58-.11.42.42,0,0,0,.16-.37.45.45,0,0,0-.08-.27.44.44,0,0,0-.21-.16,1.6,1.6,0,0,0-.49-.05h-.24Z" transform="translate(-13.11 -13.44)"/><polygon class="cls-10" points="174.18 189.31 175.08 189.31 175.08 190.92 176.35 189.31 177.41 189.31 175.78 191.4 177.57 193.98 176.52 193.98 175.08 191.91 175.08 193.98 174.18 193.98 174.18 189.31"/></g></svg>