<svg id="Layer_1" data-name="Layer 1" xmlns="http://www.w3.org/2000/svg" viewBox="0 0 237.5 180.93"><defs><style>.cls-1{fill:none;stroke:#1d1d1b;stroke-miterlimit:10;stroke-width:0.5px;}.cls-2{fill:#e30613;}.cls-3{fill:#009640;}.cls-4{fill:#1d1d1b;}.cls-5{fill:#008d36;}.cls-6{fill:#ca9e67;}.cls-7{fill:#a4acb1;}</style></defs><title>jewellifeguide</title><line class="cls-1" y1="171.81" x2="237.5" y2="171.81"/><path class="cls-2" d="M24.75,181.89v-2.58a4.27,4.27,0,0,0,.51,0c.76,0,1.15-.33,1.15-1.29V167.63H30.3v10.58c0,2.8-1.43,3.83-3.95,3.83A11.52,11.52,0,0,1,24.75,181.89Zm1.58-18.13h4.05v2.86H26.33Z" transform="translate(-6.25 -12.44)"/><path class="cls-2" d="M32.05,173.21v0a5.55,5.55,0,0,1,5.59-5.79c3.83,0,5.59,2.8,5.59,6.06,0,.25,0,.53,0,.8H35.8a2.29,2.29,0,0,0,2.39,1.82,3.34,3.34,0,0,0,2.46-1.13l2.15,1.78A5.8,5.8,0,0,1,38,179,5.57,5.57,0,0,1,32.05,173.21Zm7.53-1c-.14-1.23-.86-2-1.92-2s-1.72.8-1.92,2Z" transform="translate(-6.25 -12.44)"/><path class="cls-2" d="M43.57,167.63h3.81l1.45,5.57,1.7-5.61h3.21l1.72,5.65L57,167.63H60.7l-3.42,11.15H53.93L52.13,173l-1.84,5.75H46.95Z" transform="translate(-6.25 -12.44)"/><path class="cls-2" d="M61,173.21v0a5.55,5.55,0,0,1,5.59-5.79c3.83,0,5.59,2.8,5.59,6.06,0,.25,0,.53,0,.8H64.77a2.29,2.29,0,0,0,2.39,1.82,3.34,3.34,0,0,0,2.46-1.13l2.15,1.78A5.8,5.8,0,0,1,67,179,5.57,5.57,0,0,1,61,173.21Zm7.53-1c-.14-1.23-.86-2-1.92-2s-1.72.8-1.92,2Z" transform="translate(-6.25 -12.44)"/><path class="cls-2" d="M73.94,163.76h3.89V178.7H73.94Z" transform="translate(-6.25 -12.44)"/><path class="cls-3" d="M80.07,163.76H84V178.7H80.07Z" transform="translate(-6.25 -12.44)"/><path class="cls-3" d="M86.13,163.76h4.05v2.86H86.13Zm.08,3.87H90.1V178.7H86.21Z" transform="translate(-6.25 -12.44)"/><path class="cls-3" d="M93,170.74H91.67v-3H93v-.25a3.85,3.85,0,0,1,.94-2.87,3.79,3.79,0,0,1,2.89-1,8.46,8.46,0,0,1,2.54.31v2.74a4.62,4.62,0,0,0-1.45-.22c-.72,0-1.1.33-1.1,1v.27h2.54v3H96.83v8H93Z" transform="translate(-6.25 -12.44)"/><path class="cls-3" d="M99.88,173.21v0a5.55,5.55,0,0,1,5.59-5.79c3.83,0,5.59,2.8,5.59,6.06,0,.25,0,.53,0,.8h-7.41a2.29,2.29,0,0,0,2.39,1.82,3.34,3.34,0,0,0,2.46-1.13l2.15,1.78a5.8,5.8,0,0,1-4.81,2.25A5.57,5.57,0,0,1,99.88,173.21Zm7.53-1c-.14-1.23-.86-2-1.92-2s-1.72.8-1.92,2Z" transform="translate(-6.25 -12.44)"/><path class="cls-3" d="M112.6,180.74l1.25-2.58a7.65,7.65,0,0,0,3.87,1c1.94,0,2.91-1,2.91-2.72v-.43a4.29,4.29,0,0,1-3.42,1.66,4.82,4.82,0,0,1-4.91-5.14v0a4.83,4.83,0,0,1,4.79-5.16,4.45,4.45,0,0,1,3.48,1.55v-1.31h3.89V176a5.9,5.9,0,0,1-1.43,4.42c-1,1-2.56,1.55-4.87,1.55A11.86,11.86,0,0,1,112.6,180.74Zm8-8.16v0a2.12,2.12,0,0,0-2.25-2.13,2.14,2.14,0,0,0-2.27,2.15v0a2.26,2.26,0,0,0,4.52,0Z" transform="translate(-6.25 -12.44)"/><path class="cls-3" d="M126.46,174.87v-7.24h3.89v6c0,1.21.63,1.86,1.58,1.86a1.63,1.63,0,0,0,1.62-1.86v-6h3.89V178.7h-3.89v-1.51a4.07,4.07,0,0,1-3.31,1.76C127.87,178.94,126.46,177.39,126.46,174.87Z" transform="translate(-6.25 -12.44)"/><path class="cls-3" d="M139.51,163.76h4.05v2.86h-4.05Zm.08,3.87h3.89V178.7h-3.89Z" transform="translate(-6.25 -12.44)"/><path class="cls-3" d="M145.24,173.21v0c0-3.6,2.25-5.79,4.87-5.79a4.23,4.23,0,0,1,3.4,1.6v-5.22h3.89V178.7H153.5v-1.47a4.1,4.1,0,0,1-3.38,1.72C147.51,178.94,145.24,176.75,145.24,173.21Zm8.33,0v0a2.27,2.27,0,1,0-4.52,0v0a2.27,2.27,0,1,0,4.52,0Z" transform="translate(-6.25 -12.44)"/><path class="cls-3" d="M159,173.21v0a5.55,5.55,0,0,1,5.59-5.79c3.83,0,5.59,2.8,5.59,6.06,0,.25,0,.53,0,.8h-7.41a2.29,2.29,0,0,0,2.39,1.82,3.34,3.34,0,0,0,2.46-1.13l2.15,1.78A5.8,5.8,0,0,1,165,179,5.57,5.57,0,0,1,159,173.21Zm7.53-1c-.14-1.23-.86-2-1.92-2s-1.72.8-1.92,2Z" transform="translate(-6.25 -12.44)"/><path class="cls-2" d="M180.69,173.21v0a5.75,5.75,0,0,1,5.93-5.77,5.23,5.23,0,0,1,4.73,2.48l-2.64,2a2.39,2.39,0,0,0-2.07-1.17,2.3,2.3,0,0,0-2.17,2.46v0a2.3,2.3,0,0,0,2.21,2.52,2.65,2.65,0,0,0,2.13-1.15l2.6,1.88a5.49,5.49,0,0,1-4.93,2.54A5.71,5.71,0,0,1,180.69,173.21Z" transform="translate(-6.25 -12.44)"/><path class="cls-2" d="M192,173.21v0a6.13,6.13,0,0,1,12.24,0v0a6.13,6.13,0,0,1-12.24,0Zm8.45,0v0a2.4,2.4,0,0,0-2.35-2.5,2.32,2.32,0,0,0-2.31,2.46v0a2.4,2.4,0,0,0,2.35,2.5A2.32,2.32,0,0,0,200.48,173.21Z" transform="translate(-6.25 -12.44)"/><path class="cls-2" d="M205.9,167.63h3.89v1.51a4.06,4.06,0,0,1,3.29-1.76,3.39,3.39,0,0,1,3.19,1.8,4.65,4.65,0,0,1,3.7-1.8c2.35,0,3.79,1.47,3.79,4.05v7.26h-3.89v-6c0-1.21-.59-1.84-1.51-1.84s-1.6.63-1.6,1.84v6h-3.89v-6c0-1.21-.59-1.84-1.51-1.84s-1.58.63-1.58,1.84v6H205.9Z" transform="translate(-6.25 -12.44)"/><circle class="cls-2" cx="169.46" cy="161.54" r="2.89"/><path class="cls-4" d="M64.18,188.75h1v3.64h2.27v.91H64.18Z" transform="translate(-6.25 -12.44)"/><path class="cls-4" d="M71.11,188.75h1v4.55h-1Z" transform="translate(-6.25 -12.44)"/><path class="cls-4" d="M76.11,188.75h3.46v.91H77.11v1h2.17v.91H77.11v1.76h-1Z" transform="translate(-6.25 -12.44)"/><path class="cls-4" d="M83.23,188.75h3.43v.89H84.23v.92h2.15v.89H84.23v1H86.7v.89H83.23Z" transform="translate(-6.25 -12.44)"/><path class="cls-4" d="M90.25,191h0a2.34,2.34,0,0,1,2.39-2.35,2.5,2.5,0,0,1,1.79.62l-.63.76a1.67,1.67,0,0,0-1.19-.46A1.37,1.37,0,0,0,91.29,191h0a1.36,1.36,0,0,0,1.38,1.44,1.59,1.59,0,0,0,.94-.27v-.65h-1v-.86h2v2a3,3,0,0,1-1.94.72A2.28,2.28,0,0,1,90.25,191Z" transform="translate(-6.25 -12.44)"/><path class="cls-4" d="M98.33,191.35v-2.6h1v2.57c0,.74.37,1.13,1,1.13s1-.37,1-1.09v-2.61h1v2.57a1.83,1.83,0,0,1-2,2.05A1.81,1.81,0,0,1,98.33,191.35Z" transform="translate(-6.25 -12.44)"/><path class="cls-4" d="M106.22,188.75h1v4.55h-1Z" transform="translate(-6.25 -12.44)"/><path class="cls-4" d="M111.22,188.75H113a2.27,2.27,0,0,1,2.42,2.26h0A2.28,2.28,0,0,1,113,193.3h-1.77Zm1.77,3.65a1.3,1.3,0,0,0,1.37-1.36h0a1.31,1.31,0,0,0-1.37-1.37h-.77v2.74Z" transform="translate(-6.25 -12.44)"/><path class="cls-4" d="M119.17,188.75h3.43v.89h-2.44v.92h2.15v.89h-2.15v1h2.47v.89h-3.46Z" transform="translate(-6.25 -12.44)"/><path class="cls-4" d="M131.19,188.75h.92l2.13,2.8v-2.8h1v4.55h-.85l-2.2-2.89v2.89h-1Z" transform="translate(-6.25 -12.44)"/><path class="cls-4" d="M139.19,188.75h3.43v.89h-2.44v.92h2.15v.89h-2.15v1h2.47v.89h-3.46Z" transform="translate(-6.25 -12.44)"/><path class="cls-4" d="M147.46,189.67h-1.38v-.92h3.77v.92h-1.38v3.63h-1Z" transform="translate(-6.25 -12.44)"/><path class="cls-4" d="M153.12,188.75h1.07l.94,3.08,1-3.09H157l1,3.09.94-3.08h1l-1.55,4.58h-.87l-1-3-1,3h-.87Z" transform="translate(-6.25 -12.44)"/><path class="cls-4" d="M163.16,191h0a2.42,2.42,0,0,1,4.84,0h0a2.42,2.42,0,0,1-4.84,0Zm3.79,0h0a1.38,1.38,0,0,0-1.38-1.43,1.36,1.36,0,0,0-1.36,1.42h0a1.38,1.38,0,0,0,1.38,1.43A1.36,1.36,0,0,0,167,191Z" transform="translate(-6.25 -12.44)"/><path class="cls-4" d="M171.75,188.75h2.08a1.81,1.81,0,0,1,1.33.46,1.43,1.43,0,0,1,.39,1h0a1.41,1.41,0,0,1-1,1.41l1.11,1.63h-1.17l-1-1.46h-.79v1.46h-1Zm2,2.21c.49,0,.77-.26.77-.64h0c0-.43-.3-.65-.79-.65h-1V191Z" transform="translate(-6.25 -12.44)"/><path class="cls-4" d="M179.31,188.75h1v2l1.85-2h1.21l-1.85,1.93,1.94,2.62h-1.2l-1.41-1.94-.53.55v1.39h-1Z" transform="translate(-6.25 -12.44)"/><path class="cls-5" d="M128,52.36h7.76v56.18s-.42,20.13,8.68,27.86c0,0-14.68-4.09-16.44-29.45Z" transform="translate(-6.25 -12.44)"/><path class="cls-6" d="M194.09,91.08h-48l8.7,6.06H189.1a65.25,65.25,0,1,1-63.92-78.38,65.93,65.93,0,0,1,7.32.41V12.81a72.4,72.4,0,0,0-7.32-.37,71.56,71.56,0,1,0,71.21,78.64Z" transform="translate(-6.25 -12.44)"/><polygon class="cls-7" points="122.63 18.29 121.34 15.06 122.22 14.43 124.88 15.11 125.32 16.09 122.63 18.29"/><polygon class="cls-7" points="126.24 20.33 126.74 16.89 127.82 16.78 129.78 18.71 129.68 19.77 126.24 20.33"/><polygon class="cls-7" points="128.35 23.91 130.5 21.17 131.49 21.62 132.23 24.27 131.61 25.14 128.35 23.91"/><polygon class="cls-7" points="128.39 28.06 131.62 26.77 132.25 27.64 131.57 30.31 130.59 30.75 128.39 28.06"/><polygon class="cls-7" points="126.35 31.67 129.79 32.17 129.9 33.25 127.97 35.21 126.91 35.11 126.35 31.67"/><polygon class="cls-7" points="122.77 33.78 125.51 35.93 125.06 36.92 122.41 37.66 121.54 37.04 122.77 33.78"/><polygon class="cls-7" points="118.62 33.82 119.91 37.05 119.03 37.68 116.37 37 115.93 36.02 118.62 33.82"/><polygon class="cls-7" points="115.01 31.78 114.51 35.22 113.43 35.33 111.47 33.4 111.57 32.34 115.01 31.78"/><polygon class="cls-7" points="112.9 28.2 110.75 30.94 109.76 30.49 109.02 27.84 109.64 26.97 112.9 28.2"/><polygon class="cls-7" points="112.86 24.05 109.63 25.34 109 24.46 109.68 21.8 110.66 21.36 112.86 24.05"/><polygon class="cls-7" points="114.9 20.44 111.46 19.94 111.35 18.86 113.28 16.9 114.34 17 114.9 20.44"/><polygon class="cls-7" points="118.48 18.33 115.74 16.18 116.19 15.19 118.84 14.45 119.71 15.07 118.48 18.33"/><polygon class="cls-7" points="122.63 18.29 121.34 15.06 122.22 14.43 124.88 15.11 125.32 16.09 122.63 18.29"/><polygon class="cls-7" points="121.73 18.14 120.62 18.14 119.52 18.14 120.62 16.23 121.73 18.14"/><polygon class="cls-7" points="125.54 19.76 124.58 19.2 123.62 18.65 125.53 17.55 125.54 19.76"/><polygon class="cls-7" points="128.03 23.06 127.47 22.09 126.92 21.14 129.13 21.14 128.03 23.06"/><polygon class="cls-7" points="128.53 27.16 128.53 26.05 128.53 24.95 130.45 26.05 128.53 27.16"/><polygon class="cls-7" points="126.92 30.97 127.48 30 128.03 29.05 129.13 30.96 126.92 30.97"/><polygon class="cls-7" points="123.62 33.46 124.58 32.9 125.54 32.35 125.54 34.56 123.62 33.46"/><polygon class="cls-7" points="119.52 33.97 120.63 33.97 121.73 33.97 120.63 35.88 119.52 33.97"/><polygon class="cls-7" points="115.71 32.35 116.67 32.91 117.63 33.46 115.72 34.56 115.71 32.35"/><polygon class="cls-7" points="113.22 29.05 113.78 30.01 114.33 30.97 112.12 30.97 113.22 29.05"/><polygon class="cls-7" points="112.72 24.95 112.72 26.06 112.72 27.16 110.8 26.06 112.72 24.95"/><polygon class="cls-7" points="114.33 21.14 113.77 22.1 113.22 23.06 112.12 21.15 114.33 21.14"/><polygon class="cls-7" points="117.63 18.65 116.67 19.21 115.71 19.76 115.71 17.55 117.63 18.65"/><polygon class="cls-7" points="121.73 18.14 120.62 18.14 119.52 18.14 120.62 16.23 121.73 18.14"/><circle class="cls-6" cx="120.62" cy="26" r="7.12"/><path class="cls-2" d="M123.16,52.36H112.6c1.29,0,6.38.55,6.44,6.56v49.62s.42,20.13-8.68,27.86c0,0,14.68-4.09,16.44-29.45V52.36Z" transform="translate(-6.25 -12.44)"/></svg>