<svg id="Layer_1" data-name="Layer 1" xmlns="http://www.w3.org/2000/svg" xmlns:xlink="http://www.w3.org/1999/xlink" viewBox="0 0 661.55 143"><defs><style>.cls-1{fill:#fcc433;}.cls-2{fill:url(#radial-gradient);}.cls-3{fill:#fff;}.cls-4{fill:none;stroke:#1d1d1b;stroke-miterlimit:10;stroke-width:0.5px;}.cls-5{fill:#e20613;}.cls-6{fill:#009540;}.cls-7{fill:#1d1d1b;}</style><radialGradient id="radial-gradient" cx="71.5" cy="71.5" r="44.23" gradientUnits="userSpaceOnUse"><stop offset="0.2" stop-color="#ffec00"/><stop offset="1" stop-color="#e20613"/></radialGradient></defs><title>logo</title><polygon class="cls-1" points="76.25 36.07 90.17 2.48 85.26 38.51 107.4 9.67 93.33 43.19 122.18 21.07 99.92 49.81 133.51 35.9 104.56 57.9 140.61 53.16 106.96 66.92 143 71.67 106.93 76.25 140.52 90.17 104.5 85.26 133.33 107.4 99.81 93.33 121.93 122.18 93.19 99.92 107.1 133.51 85.1 104.56 89.84 140.61 76.08 106.96 71.33 143 66.75 106.93 52.83 140.52 57.74 104.5 35.6 133.33 49.67 99.81 20.82 121.93 43.08 93.19 9.49 107.1 38.44 85.1 2.39 89.84 36.04 76.08 0 71.33 36.07 66.75 2.48 52.83 38.51 57.74 9.67 35.6 43.19 49.67 21.07 20.82 49.81 43.08 35.9 9.49 57.9 38.44 53.16 2.39 66.92 36.04 71.67 0 76.25 36.07"/><circle class="cls-2" cx="71.5" cy="71.5" r="44.23"/><circle class="cls-3" cx="69.77" cy="68.27" r="8.52" transform="translate(-41.75 26.47) rotate(-24.03)"/><path class="cls-3" d="M69,66.48c-7.72,3.44-13.35,7.63-12.58,9.35s7.65.33,15.37-3.11,13.35-7.63,12.58-9.35S76.68,63,69,66.48Zm2,4.45c-6.39,2.85-12,4.29-12.45,3.21s4.31-4.27,10.7-7.12,12-4.29,12.45-3.21S77.34,68.08,71,70.93Z" transform="translate(-20 -7.85)"/><path class="cls-3" d="M100.21,68.59l7.85-2.65-.1-8.29,4.95,6.65,7.85-2.65L116,68.41l4.95,6.65L113,72.59l-4.8,6.77-.1-8.29Z" transform="translate(-20 -7.85)"/><path class="cls-3" d="M91.5,102.61a18.91,18.91,0,0,1-18.5-15,18.91,18.91,0,1,0,37,0A18.91,18.91,0,0,1,91.5,102.61Z" transform="translate(-20 -7.85)"/><line class="cls-4" x1="161.5" y1="85.65" x2="657.5" y2="86.65"/><path class="cls-5" d="M173.61,71.24v-.11c0-5.95,4.51-9,11.26-9a22,22,0,0,1,6.9,1.12v-.48c0-3-1.86-4.67-5.74-4.67a20.23,20.23,0,0,0-7.91,1.59l-2.07-7.12a28.86,28.86,0,0,1,11.63-2.23c5.15,0,8.66,1.22,10.94,3.5,2.18,2.13,3.08,5.1,3.08,9.13V79.47h-10v-3a10.84,10.84,0,0,1-8.44,3.61C177.81,80.11,173.61,77,173.61,71.24Zm18.27-2.18V67.73A10.55,10.55,0,0,0,188,67c-2.92,0-4.62,1.43-4.62,3.56v.11c0,2,1.49,3.13,3.56,3.13C189.81,73.79,191.88,71.93,191.88,69.06Z" transform="translate(-20 -7.85)"/><path class="cls-5" d="M204.67,75.86l3.77-6.11A18.67,18.67,0,0,0,218.32,73c1.75,0,2.55-.53,2.55-1.54V71.4c0-1.12-1.59-1.59-4.62-2.44-5.68-1.49-10.2-3.4-10.2-9.19v-.11c0-6.11,4.88-9.5,11.52-9.5a22.47,22.47,0,0,1,11.84,3.35L226,59.88a19.42,19.42,0,0,0-8.5-2.66c-1.54,0-2.34.58-2.34,1.38v.11c0,1.12,1.65,1.65,4.67,2.55,5.68,1.59,10.2,3.56,10.2,9.13v.11c0,6.32-4.73,9.61-11.74,9.61A23.17,23.17,0,0,1,204.67,75.86Z" transform="translate(-20 -7.85)"/><path class="cls-5" d="M235.36,70.55V58.87H232V50.74h3.4V43.47h10.09v7.27h6.69v8.12h-6.69v9.72c0,2,.9,2.87,2.76,2.87a8.85,8.85,0,0,0,3.82-1v7.91a14.4,14.4,0,0,1-7,1.65C239,80.05,235.36,77.4,235.36,70.55Z" transform="translate(-20 -7.85)"/><path class="cls-5" d="M256.5,50.74h10.09v5.79c1.65-3.93,4.3-6.48,9.08-6.26V60.88h-.85c-5.26,0-8.23,3-8.23,9.66v8.92H256.5Z" transform="translate(-20 -7.85)"/><path class="cls-5" d="M277.52,65.24v-.11c0-8.18,6.69-15,15.93-15S309.28,56.85,309.28,65v.11c0,8.18-6.69,15-15.93,15S277.52,73.42,277.52,65.24Zm21.93,0v-.11a6.23,6.23,0,0,0-6.11-6.48c-3.66,0-6,2.92-6,6.37v.11a6.23,6.23,0,0,0,6.11,6.48C297.12,71.61,299.45,68.69,299.45,65.24Z" transform="translate(-20 -7.85)"/><path class="cls-6" d="M313.73,40.7h10.09V79.47H313.73Z" transform="translate(-20 -7.85)"/><path class="cls-6" d="M329.45,40.7H340v7.43H329.45Zm.21,10h10.09V79.47H329.66Z" transform="translate(-20 -7.85)"/><path class="cls-6" d="M347.18,58.81h-3.35V50.9h3.35v-.64c0-3.29.74-5.74,2.44-7.43s4.09-2.5,7.49-2.5a22,22,0,0,1,6.59.8v7.12a12,12,0,0,0-3.77-.58c-1.86,0-2.87.85-2.87,2.71v.69h6.58v7.75h-6.43V79.47h-10Z" transform="translate(-20 -7.85)"/><path class="cls-6" d="M365.13,65.24v-.11c0-8.39,6-15,14.5-15,9.93,0,14.5,7.27,14.5,15.72,0,.64,0,1.38-.05,2.07H374.84a5.93,5.93,0,0,0,6.21,4.73c2.39,0,4.3-.9,6.37-2.92L393,74.32a15,15,0,0,1-12.48,5.84C371.5,80.16,365.13,74.16,365.13,65.24Zm19.54-2.5c-.37-3.19-2.23-5.2-5-5.2s-4.46,2.07-5,5.2Z" transform="translate(-20 -7.85)"/><path class="cls-6" d="M398.15,84.78l3.24-6.69a19.83,19.83,0,0,0,10,2.71c5,0,7.54-2.5,7.54-7.06V72.62a11.13,11.13,0,0,1-8.87,4.3c-7.06,0-12.74-5.1-12.74-13.33v-.11c0-8.28,5.79-13.38,12.43-13.38a11.54,11.54,0,0,1,9,4v-3.4H428.9V72.57c0,5.26-1.17,8.92-3.72,11.47s-6.64,4-12.64,4A30.77,30.77,0,0,1,398.15,84.78ZM419,63.59v-.11A5.5,5.5,0,0,0,413.13,58a5.56,5.56,0,0,0-5.89,5.58v.11c0,3.19,2.44,5.52,5.89,5.52A5.54,5.54,0,0,0,419,63.59Z" transform="translate(-20 -7.85)"/><path class="cls-6" d="M434.1,69.54V50.74h10.09V66.3c0,3.13,1.65,4.83,4.09,4.83s4.19-1.7,4.19-4.83V50.74h10.09V79.47H452.47V75.54a10.57,10.57,0,0,1-8.6,4.57C437.76,80.11,434.1,76.07,434.1,69.54Z" transform="translate(-20 -7.85)"/><path class="cls-6" d="M468,40.7h10.51v7.43H468Zm.21,10h10.09V79.47H468.19Z" transform="translate(-20 -7.85)"/><path class="cls-6" d="M482.84,65.24v-.11c0-9.35,5.84-15,12.64-15a11,11,0,0,1,8.81,4.14V40.7h10.09V79.47H504.29V75.65c-2,2.39-4.46,4.46-8.76,4.46C488.73,80.11,482.84,74.42,482.84,65.24Zm21.61-.11V65c0-3.77-2.6-6.48-5.84-6.48s-5.89,2.65-5.89,6.48v.11c0,3.82,2.65,6.53,5.89,6.53S504.45,69,504.45,65.13Z" transform="translate(-20 -7.85)"/><path class="cls-6" d="M518.62,65.24v-.11c0-8.39,6-15,14.5-15,9.93,0,14.5,7.27,14.5,15.72,0,.64,0,1.38-.05,2.07H528.34a5.93,5.93,0,0,0,6.21,4.73c2.39,0,4.3-.9,6.37-2.92l5.58,4.62A15,15,0,0,1,534,80.16C525,80.16,518.62,74.16,518.62,65.24Zm19.54-2.5c-.37-3.19-2.23-5.2-5-5.2s-4.46,2.07-5,5.2Z" transform="translate(-20 -7.85)"/><path class="cls-5" d="M569.78,65.24v-.11c0-8.12,6.32-15,15.4-15,5.89,0,9.82,2.55,12.27,6.42l-6.85,5.1c-1.38-1.91-2.92-3-5.36-3-3.24,0-5.63,2.87-5.63,6.37v.11c0,3.72,2.34,6.53,5.74,6.53,2.39,0,3.93-1.12,5.52-3l6.74,4.88c-2.65,3.93-6.48,6.59-12.8,6.59A14.82,14.82,0,0,1,569.78,65.24Z" transform="translate(-20 -7.85)"/><path class="cls-5" d="M599.19,65.24v-.11c0-8.18,6.69-15,15.93-15S630.95,56.85,630.95,65v.11c0,8.18-6.69,15-15.93,15S599.19,73.42,599.19,65.24Zm21.93,0v-.11A6.23,6.23,0,0,0,615,58.65c-3.66,0-6,2.92-6,6.37v.11a6.23,6.23,0,0,0,6.11,6.48C618.79,71.61,621.13,68.69,621.13,65.24Z" transform="translate(-20 -7.85)"/><path class="cls-5" d="M635.19,50.74h10.09v3.93a10.55,10.55,0,0,1,8.55-4.57c3.82,0,6.74,1.7,8.28,4.67,2.5-2.87,5.42-4.67,9.61-4.67,6.11,0,9.82,3.82,9.82,10.51V79.47H671.46V63.86c0-3.13-1.54-4.78-3.93-4.78s-4.14,1.65-4.14,4.78V79.47H653.3V63.86c0-3.13-1.54-4.78-3.93-4.78s-4.09,1.65-4.09,4.78V79.47H635.19Z" transform="translate(-20 -7.85)"/><circle class="cls-5" cx="538.93" cy="63.39" r="7.5"/><path class="cls-7" d="M265.16,105.55h2.6V115h5.89v2.36h-8.48Z" transform="translate(-20 -7.85)"/><path class="cls-7" d="M283.14,105.55h2.6v11.81h-2.6Z" transform="translate(-20 -7.85)"/><path class="cls-7" d="M296.12,105.55h9v2.36h-6.39v2.51h5.64v2.36h-5.64v4.57h-2.6Z" transform="translate(-20 -7.85)"/><path class="cls-7" d="M314.61,105.55h8.91v2.31h-6.33v2.39h5.57v2.31h-5.57V115h6.41v2.31h-9Z" transform="translate(-20 -7.85)"/><path class="cls-7" d="M332.81,111.49v0a6.06,6.06,0,0,1,6.19-6.11,6.48,6.48,0,0,1,4.64,1.62l-1.64,2a4.34,4.34,0,0,0-3.09-1.2,3.55,3.55,0,0,0-3.39,3.68v0a3.54,3.54,0,0,0,3.58,3.75,4.13,4.13,0,0,0,2.45-.71V112.8h-2.61v-2.24h5.13v5.13a7.66,7.66,0,0,1-5,1.87A5.91,5.91,0,0,1,332.81,111.49Z" transform="translate(-20 -7.85)"/><path class="cls-7" d="M353.79,112.3v-6.75h2.6v6.68c0,1.92,1,2.92,2.55,2.92s2.55-1,2.55-2.83v-6.76h2.6v6.66c0,3.58-2,5.33-5.18,5.33S353.79,115.77,353.79,112.3Z" transform="translate(-20 -7.85)"/><path class="cls-7" d="M374.27,105.55h2.6v11.81h-2.6Z" transform="translate(-20 -7.85)"/><path class="cls-7" d="M387.24,105.55h4.61c3.71,0,6.27,2.55,6.27,5.87v0a5.91,5.91,0,0,1-6.27,5.9h-4.61Zm4.61,9.46a3.36,3.36,0,0,0,3.56-3.53v0a3.39,3.39,0,0,0-3.56-3.56h-2V115Z" transform="translate(-20 -7.85)"/><path class="cls-7" d="M407.85,105.55h8.91v2.31h-6.33v2.39H416v2.31h-5.57V115h6.41v2.31h-9Z" transform="translate(-20 -7.85)"/><path class="cls-7" d="M439.06,105.55h2.4l5.53,7.27v-7.27h2.56v11.81h-2.21l-5.72-7.51v7.51h-2.56Z" transform="translate(-20 -7.85)"/><path class="cls-7" d="M459.81,105.55h8.91v2.31h-6.33v2.39H468v2.31h-5.57V115h6.41v2.31h-9Z" transform="translate(-20 -7.85)"/><path class="cls-7" d="M481.28,107.94h-3.59v-2.39h9.78v2.39h-3.59v9.41h-2.6Z" transform="translate(-20 -7.85)"/><path class="cls-7" d="M496,105.55h2.78l2.45,8,2.65-8h2.23l2.65,8,2.45-8h2.72l-4,11.89H507.6l-2.67-7.72-2.66,7.72H500Z" transform="translate(-20 -7.85)"/><path class="cls-7" d="M522,111.49v0a6.28,6.28,0,0,1,12.55,0v0a6.28,6.28,0,0,1-12.55,0Zm9.83,0v0a3.59,3.59,0,0,0-3.58-3.71,3.53,3.53,0,0,0-3.54,3.68v0a3.59,3.59,0,0,0,3.58,3.71A3.53,3.53,0,0,0,531.87,111.49Z" transform="translate(-20 -7.85)"/><path class="cls-7" d="M544.32,105.55h5.4a4.71,4.71,0,0,1,3.44,1.2,3.71,3.71,0,0,1,1,2.7v0a3.67,3.67,0,0,1-2.53,3.66l2.88,4.22h-3L549,113.58h-2v3.78h-2.6Zm5.23,5.74c1.27,0,2-.67,2-1.67v0c0-1.11-.78-1.69-2-1.69h-2.58v3.39Z" transform="translate(-20 -7.85)"/><path class="cls-7" d="M563.93,105.55h2.6v5.16l4.79-5.16h3.14l-4.81,5,5,6.8h-3.12l-3.66-5-1.37,1.42v3.61h-2.6Z" transform="translate(-20 -7.85)"/></svg>